HIERARCHY
ROOT Hips
{
	OFFSET 0.000000 0.000000 0.000000
	CHANNELS 6 Xposition Yposition Zposition Zrotation Yrotation Xrotation 
	JOINT LHipJoint
	{
		OFFSET 0.000000 0.000000 0.000000
		CHANNELS 3 Zrotation Yrotation Xrotation
		JOINT LeftUpLeg
		{
			OFFSET 1.363060 -1.794630 0.839290
			CHANNELS 3 Zrotation Yrotation Xrotation
			JOINT LeftLeg
			{
				OFFSET 2.448110 -6.726130 0.000000
				CHANNELS 3 Zrotation Yrotation Xrotation
				JOINT LeftFoot
				{
					OFFSET 2.562200 -7.039590 0.000000
					CHANNELS 3 Zrotation Yrotation Xrotation
					JOINT LeftToeBase
					{
						OFFSET 0.157640 -0.433110 2.322550
						CHANNELS 3 Zrotation Yrotation Xrotation
						End Site
						{
							OFFSET 0.000000 0.000000 0.000000
						}
					}
				}
			}
		}
	}
	JOINT RHipJoint
	{
		OFFSET 0.000000 0.000000 0.000000
		CHANNELS 3 Zrotation Yrotation Xrotation
		JOINT RightUpLeg
		{
			OFFSET -1.305520 -1.794630 0.839290
			CHANNELS 3 Zrotation Yrotation Xrotation
			JOINT RightLeg
			{
				OFFSET -2.542530 -6.985550 0.000000
				CHANNELS 3 Zrotation Yrotation Xrotation
				JOINT RightFoot
				{
					OFFSET -2.568260 -7.056230 0.000000
					CHANNELS 3 Zrotation Yrotation Xrotation
					JOINT RightToeBase
					{
						OFFSET -0.164730 -0.452590 2.363150
						CHANNELS 3 Zrotation Yrotation Xrotation
						End Site
						{
							OFFSET 0.000000 0.000000 0.000000
						}
					}
				}
			}
		}
	}
}
MOTION
Frames: 33
Frame Time: 0.008333
-18.049008 15.946606 0.114847 27.277643 86.388325 44.355111 -8.047613 -0.541065 3.914077 -14.141065 -4.785172 -58.932901 -1.320974 1.944762 43.922612 1.669542 6.780808 -8.502253 0.228400 -0.000001 -17.445800 12.153984 -5.966456 1.224860 -0.126741 -5.042396 6.266405 0.105835 -2.424674 27.892061 -0.482181 10.887238 29.095080 6.676600 -0.000000 -79.006200
-17.851094 15.961956 0.101551 29.489532 86.262503 46.005545 -7.953975 -0.437670 3.579650 -14.913372 -4.187352 -57.617949 -1.326752 1.947243 44.630231 1.726653 6.998682 -9.337757 0.074900 0.000000 -16.263700 12.474147 -5.741620 1.002045 -1.003356 -5.786497 4.388641 -0.165092 -2.604114 32.635691 -0.823903 8.494610 30.123297 5.558600 0.000000 -76.228900
-17.658568 15.976713 0.085649 31.734073 86.153445 47.669488 -7.865379 -0.316296 3.251566 -15.658850 -3.576737 -56.239503 -1.347611 1.946231 45.239244 1.765259 7.105244 -10.217708 -0.094001 0.000000 -15.140300 12.776851 -5.470469 0.739196 -1.847932 -6.620318 2.462428 -0.407206 -2.784888 37.419604 -1.187297 5.166117 30.399757 3.745000 -0.000000 -73.233200
-17.470608 15.991370 0.067092 34.000929 86.068500 49.355950 -7.785232 -0.180955 2.940441 -16.349713 -2.981187 -54.827548 -1.380140 1.943225 45.753758 1.787736 7.111841 -11.121893 -0.269200 -0.000001 -14.137001 13.054171 -5.163752 0.446479 -2.630159 -7.496236 0.492523 -0.626743 -2.980400 42.179865 -1.567718 1.110077 29.814212 1.435900 -0.000001 -69.894800
-17.286301 16.006586 0.045967 36.282923 86.010581 51.080944 -7.715701 -0.035537 2.655829 -16.966960 -2.427623 -53.413593 -1.421557 1.939348 46.174487 1.797922 7.038346 -12.029549 -0.442000 -0.000000 -13.309000 13.301251 -4.834060 0.137101 -3.325133 -8.368512 -1.531435 -0.832378 -3.199333 46.854709 -1.954684 -3.318411 28.314234 -1.029200 0.000000 -66.065099
-17.104735 16.023120 0.022469 38.568447 85.978786 52.855189 -7.658415 0.116469 2.405647 -17.500634 -1.938104 -52.026422 -1.469675 1.935072 46.497536 1.800136 6.909072 -12.918900 -0.605000 0.000000 -12.701200 13.515197 -4.494293 -0.172456 -3.911841 -9.191077 -3.628917 -1.033297 -3.443566 51.382247 -2.332160 -7.700152 25.944927 -3.263400 -0.000000 -61.653300
-16.924864 16.041718 -0.002985 40.843447 85.969446 54.686242 -7.613956 0.272076 2.195493 -17.949234 -1.528344 -50.690863 -1.522865 1.930248 46.716846 1.798541 6.748969 -13.769785 -0.753400 0.000000 -12.343199 13.695148 -4.155103 -0.464279 -4.371796 -9.920684 -5.823588 -1.236352 -3.707716 55.704118 -2.680668 -11.654643 22.849623 -4.946000 0.000000 -56.665101
-16.746112 16.063016 -0.029886 43.097208 85.977690 56.581434 -7.581594 0.428531 2.027490 -18.317805 -1.206333 -49.425633 -1.580093 1.924199 46.825410 1.796299 6.578925 -14.564553 -0.884701 0.000000 -12.245800 13.841933 -3.822502 -0.721767 -4.690431 -10.518208 -8.136321 -1.443724 -3.980934 59.769085 -2.980468 -14.913137 19.243857 -5.904500 -0.000000 -51.215700
-16.567944 16.087714 -0.057606 45.319293 85.999701 58.540353 -7.560602 0.584020 1.901997 -18.614235 -0.970749 -48.237483 -1.640840 1.915310 46.812863 1.795179 6.413361 -15.288181 -0.998000 -0.000000 -12.397100 13.956317 -3.499412 -0.930433 -4.856831 -10.952734 -10.576695 -1.652255 -4.249760 63.532433 -3.213823 -17.334644 15.369775 -6.130100 -0.000001 -45.465499
-16.389812 16.116346 -0.085442 47.521922 86.032619 60.574823 -7.549340 0.737743 1.816370 -18.848335 -0.812057 -47.118785 -1.705286 1.901551 46.667634 1.795437 6.258679 -15.930229 -1.093500 -0.000001 -12.761200 14.039804 -3.185666 -1.081061 -4.869773 -11.206054 -13.136906 -1.854722 -4.501489 66.954906 -3.366536 -18.879892 11.456821 -5.742901 0.000000 -39.612900
-16.211419 16.149283 -0.112688 49.740969 86.075655 62.713549 -7.545673 0.889051 1.764033 -19.028952 -0.715606 -46.048916 -1.774317 1.880940 46.377603 1.795932 6.113245 -16.485249 -1.171900 -0.000000 -13.279100 14.094132 -2.878803 -1.171848 -4.737881 -11.274144 -15.791458 -2.041763 -4.726294 70.000514 -3.428802 -19.574692 7.701543 -4.936800 -0.000000 -33.887300
-16.032604 16.186902 -0.138735 52.040087 86.129431 65.000200 -7.548917 1.037945 1.736550 -19.160986 -0.660632 -44.991195 -1.849375 1.851530 45.929084 1.794237 5.968081 -16.952815 -1.233400 -0.000000 -13.873800 14.119910 -2.577014 -1.206259 -4.477970 -11.166048 -18.493396 -2.203846 -4.917107 72.633280 -3.395847 -19.483012 4.257685 -3.924700 0.000001 -28.512100
-15.853131 16.229666 -0.163135 54.506883 86.193296 67.498748 -7.558428 1.185414 1.725976 -19.248975 -0.628129 -43.900226 -1.932322 1.811236 45.302975 1.787757 5.813022 -17.333144 -1.277800 0.000000 -14.463600 14.117994 -2.278777 -1.190369 -4.116301 -10.899632 -21.186757 -2.332659 -5.069040 74.818729 -3.269144 -18.694880 1.245128 -2.897600 0.000000 -23.760300
-15.673002 16.277699 -0.185683 57.247614 86.269005 70.288513 -7.576109 1.330039 1.720862 -19.289743 -0.598690 -42.728464 -2.024670 1.759000 44.487466 1.773414 5.634234 -17.632903 -1.305200 0.000000 -14.968401 14.087414 -1.982860 -1.137153 -3.677392 -10.502183 -23.806723 -2.421905 -5.179994 76.529331 -3.057110 -17.322875 -1.261035 -1.992699 0.000000 -19.897401
-15.492082 16.331186 -0.206474 60.372497 86.355681 73.456203 -7.604453 1.470394 1.713088 -19.279788 -0.559951 -41.432830 -2.127302 1.693533 43.468066 1.749143 5.423059 -17.856745 -1.315299 0.000000 -15.328100 14.026825 -1.688856 -1.058779 -3.184835 -10.003292 -26.295172 -2.467728 -5.248795 77.743453 -2.776285 -15.504536 -3.221031 -1.285000 -0.000000 -17.192300
-15.310140 16.390253 -0.225766 63.989125 86.449495 77.089446 -7.646628 1.604636 1.698192 -19.214744 -0.506740 -39.977828 -2.239832 1.613318 42.230900 1.714184 5.177947 -18.006935 -1.308700 -0.000000 -15.511300 13.934395 -1.397532 -0.966193 -2.658035 -9.433244 -28.602486 -2.468647 -5.275304 78.448791 -2.450441 -13.399045 -4.641696 -0.788300 0.000000 -15.828000
-15.126937 16.454711 -0.244138 68.191512 86.548031 81.270963 -7.706495 1.728693 1.673293 -19.086676 -0.441619 -38.343531 -2.360010 1.517051 40.769193 1.668947 4.903185 -18.085000 -1.286600 -0.000000 -15.514800 13.807335 -1.110225 -0.870756 -2.106574 -8.820574 -30.692903 -2.424576 -5.260990 78.642973 -2.107387 -11.175642 -5.581476 -0.471800 -0.000000 -15.795800
-14.942185 16.524217 -0.262263 73.046814 86.647854 86.064312 -7.787732 1.837646 1.638717 -18.887478 -0.374391 -36.524269 -2.483533 1.403239 39.080788 1.615342 4.611640 -18.089181 -1.251000 0.000000 -15.365900 13.642601 -0.829935 -0.781232 -1.532426 -8.187999 -32.545054 -2.336029 -5.208636 78.331418 -1.774304 -8.996528 -6.143472 -0.284100 0.000001 -16.886000
-14.755583 16.598236 -0.281023 78.609655 86.747596 91.528235 -7.893927 1.925841 1.596871 -18.608189 -0.320972 -34.528366 -2.604056 1.270617 37.169886 1.556258 4.322211 -18.015110 -1.204900 -0.000000 -15.114000 13.436757 -0.561153 -0.703634 -0.930876 -7.549070 -34.149673 -2.203881 -5.121767 77.522951 -1.473413 -7.000479 -6.447345 -0.176600 -0.000001 -18.734300
-14.566903 16.675835 -0.301199 84.933733 86.845705 97.726009 -8.028684 1.987834 1.552250 -18.240596 -0.299857 -32.379680 -2.713536 1.118836 35.052230 1.495117 4.056928 -17.858077 -1.151899 0.000001 -14.821900 13.186320 -0.310524 -0.641029 -0.292747 -6.911065 -35.509768 -2.028267 -5.005322 76.235099 -1.218298 -5.284363 -6.644206 -0.111200 -0.000000 -20.676300
-14.376062 16.755904 -0.323585 92.099943 86.939547 104.750797 -8.195656 2.018821 1.509307 -17.779192 -0.329517 -30.108544 -2.802968 0.948591 32.750255 1.435409 3.839225 -17.611869 -1.095700 -0.000000 -14.557000 12.887806 -0.085556 -0.592734 0.389268 -6.270464 -36.631077 -1.810849 -4.863211 74.478349 -1.015985 -3.908013 -6.827095 -0.069800 0.000000 -22.337900
-14.182973 16.837192 -0.348861 100.240800 87.025050 112.748861 -8.397484 2.015323 1.471963 -17.221087 -0.424485 -27.752029 -2.863230 0.761981 30.295227 1.379990 3.688586 -17.270663 -1.039100 0.000000 -14.381800 12.538894 0.105399 -0.554730 1.121268 -5.617180 -37.522060 -1.554341 -4.698781 72.257444 -0.868199 -2.893684 -7.042620 -0.044000 0.000000 -23.511399
-13.987620 16.918203 -0.377464 109.547865 87.091947 121.924061 -8.634379 1.976258 1.443115 -16.568276 -0.591162 -25.348457 -2.886359 0.562521 27.725895 1.330664 3.617054 -16.830124 -0.983600 -0.000000 -14.347800 12.139950 0.253604 -0.520033 1.904013 -4.939911 -38.192265 -1.262257 -4.515147 69.573109 -0.773163 -2.231267 -7.297450 -0.029400 -0.000000 -24.077100
-13.789991 16.997380 -0.409528 120.205140 87.121863 132.469952 -8.901801 1.902688 1.423322 -15.826851 -0.824358 -22.934758 -2.867009 0.354749 25.085187 1.287564 3.624809 -16.287305 -0.928600 0.000000 -14.490300 11.696077 0.350465 -0.479342 2.734045 -4.227678 -38.650242 -0.939099 -4.315055 66.420507 -0.727369 -1.889621 -7.550920 -0.023299 -0.000000 -24.091700
-13.590002 17.073206 -0.444965 132.233754 87.091278 144.413724 -9.186205 1.799315 1.410032 -15.005204 -1.104062 -20.543696 -2.804411 0.144271 22.417530 1.248833 3.697813 -15.641181 -0.871100 0.000000 -14.827500 11.221244 0.390270 -0.421790 3.605020 -3.471254 -38.903118 -0.589919 -4.099988 62.792207 -0.726045 -1.825958 -7.733194 -0.025300 0.000000 -23.712100
-13.387574 17.144160 -0.483297 145.227605 86.981250 157.351171 -9.463694 1.678516 1.398567 -14.116227 -1.393539 -18.204784 -2.705536 -0.061202 19.764909 1.210684 3.807508 -14.895324 -0.806600 0.000000 -15.359900 10.740279 0.376365 -0.335233 4.506495 -2.661346 -38.956221 -0.221688 -3.866026 58.682104 -0.763342 -1.995156 -7.759227 -0.040300 0.000000 -23.182900
-13.182506 17.208860 -0.523777 158.254124 86.796703 170.352275 -9.713661 1.564006 1.382829 -13.182239 -1.640078 -15.947885 -2.586296 -0.249838 17.159389 1.168314 3.916898 -14.057360 -0.730000 -0.000000 -16.074000 10.277550 0.328058 -0.210010 5.419522 -1.785080 -38.812388 0.154373 -3.598055 54.087873 -0.832261 -2.355636 -7.546799 -0.079200 0.000000 -22.781200
-12.974666 17.265887 -0.565286 170.095468 86.557548 -177.802176 -9.944500 1.485061 1.359463 -12.246132 -1.779631 -13.803706 -2.465654 -0.408425 14.627532 1.116864 3.982742 -13.141418 -0.637700 0.000001 -16.945300 9.834384 0.268650 -0.037840 6.305095 -0.837623 -38.473841 0.524586 -3.273616 49.018155 -0.924100 -2.869395 -7.035870 -0.159200 0.000000 -22.741600
-12.763745 17.314087 -0.606502 179.849233 86.266909 -168.011386 -10.186610 1.453746 1.321429 -11.355096 -1.753777 -11.799159 -2.354227 -0.531716 12.196470 1.051355 3.956008 -12.160803 -0.529600 0.000000 -17.943800 9.391403 0.204140 0.188071 7.112219 0.167208 -37.948993 0.884694 -2.878545 43.479673 -1.029451 -3.507695 -6.197772 -0.300700 0.000000 -23.193900
-12.549623 17.352367 -0.645805 -172.868077 85.916764 -160.662299 -10.450176 1.465864 1.258023 -10.545563 -1.513903 -9.947345 -2.257338 -0.624009 9.900292 0.966076 3.779285 -11.134507 -0.410400 -0.000000 -19.038800 8.947443 0.130288 0.478387 7.786626 1.200793 -37.249450 1.240094 -2.406292 37.481048 -1.139825 -4.255518 -5.036155 -0.524900 0.000000 -24.173100
-12.331983 17.379814 -0.681327 -168.098352 85.513738 -155.794516 -10.715437 1.515350 1.162847 -9.853685 -1.045982 -8.256731 -2.182379 -0.693419 7.766699 0.858607 3.415151 -10.088763 -0.289900 -0.000000 -20.189000 8.530579 0.056676 0.843257 8.262013 2.225748 -36.405713 1.593516 -1.847188 31.052309 -1.247839 -5.103811 -3.591981 -0.847400 0.000000 -25.536700
-12.110861 17.395768 -0.711528 -165.608105 85.078831 -153.186358 -10.956766 1.598801 1.028902 -9.307084 -0.347633 -6.707786 -2.138421 -0.746620 5.807608 0.728970 2.841985 -9.053378 -0.179401 -0.000000 -21.377900 8.179797 0.007483 1.277773 8.473417 3.194794 -35.436803 1.934389 -1.191738 24.258247 -1.345625 -6.045285 -1.905863 -1.277200 -0.000000 -27.220000
-11.886108 17.399501 -0.734437 -165.342880 84.623155 -152.788064 -11.138983 1.719699 0.870191 -8.958316 0.512858 -5.284660 -2.134109 -0.791640 4.030659 0.585105 2.091056 -8.068259 -0.090600 0.000000 -22.543700 7.944830 0.017414 1.758852 8.349333 3.999837 -34.422531 2.238828 -0.451120 17.282678 -1.417451 -7.011379 -0.075307 -1.793900 -0.000001 -28.931300
